<?xml version="1.0" encoding="UTF-8"?>
<svg id="Layer_1" data-name="Layer 1" xmlns="http://www.w3.org/2000/svg" xmlns:xlink="http://www.w3.org/1999/xlink" viewBox="0 0 1106.04 776.33">
  <defs>
    <style>
      .cls-1 {
        fill: url(#linear-gradient-2);
      }

      .cls-2 {
        fill: url(#linear-gradient-3);
      }

      .cls-3 {
        fill: url(#linear-gradient);
      }
    </style>
    <linearGradient id="linear-gradient" x1="460.68" y1="379.52" x2="650.76" y2="379.52" gradientUnits="userSpaceOnUse">
      <stop offset="0" stop-color="#f27567"/>
      <stop offset=".46" stop-color="#939b81"/>
      <stop offset="1" stop-color="#00a7a2"/>
    </linearGradient>
    <linearGradient id="linear-gradient-2" x1="491.25" y1="379.49" x2="620.26" y2="379.49" xlink:href="#linear-gradient"/>
    <linearGradient id="linear-gradient-3" x1="387.09" y1="388.16" x2="718.96" y2="388.16" xlink:href="#linear-gradient"/>
  </defs>
  <path class="cls-3" d="M623.78,312.95c-15.64-16.07-37.43-24.9-61.34-24.9-3.27,0-6.15.12-8.79.39-38.18,3.07-83.13,28.92-91.48,70.84-7.92,39.4,16.51,83.25,56.77,101.92,23.72,11.5,50.98,12.92,74.86,3.86,22.42-8.47,39.95-25.33,49.41-47.51l.24-.55c14.81-34.08,6.58-77.85-19.62-104.05h-.04ZM627.4,410.19c-7.72,18.56-22.34,32.62-41.05,39.71-8.59,3.23-17.69,4.85-26.79,4.85-11.74,0-23.52-2.64-34.39-7.92-32.7-15.21-52.48-51.18-45.94-83.72,7.01-35.02,42.55-55.99,74.11-58.51,22.22-2.01,43.38,5.4,57.92,20.37,21.51,21.47,28.29,57.29,16.15,85.22Z"/>
  <path class="cls-1" d="M560.43,317.48c-1.97,0-3.98.12-5.99.28-25.96,2.13-56.62,19.62-62.21,47.95-5.32,26.28,11.66,56.65,38.61,69.14,16.15,7.84,34.67,8.79,50.86,2.64,15.29-5.75,27.19-17.29,33.53-32.46l.08-.08c10.05-23.09,4.41-52.83-13.36-70.56-10.64-10.91-25.49-16.9-41.53-16.9ZM592.81,395.37c-8.75,20.76-32.86,28.45-52.72,18.79-15.88-7.41-27.46-25.61-23.92-43.18,3.51-17.41,21.59-28.68,38.45-30.06,11.23-.98,22.18,2.6,29.82,10.4l.04.04c11.11,11.11,14.54,29.59,8.31,44.01Z"/>
  <path class="cls-2" d="M682.72,275.76c-50.67-10.32-102.08-27.89-152.79-37.03-8.71-1.62-17.41-2.76-26.4-1.46-11.15,1.62-22.65,10.76-29.15,19.46-30.26,40.35-52.99,93.1-82.3,134.86-10.83,23.21-3.78,50.82,18.87,63.43,60.04,28.25,112.29,52.09,172.45,78.99,29.79,13.28,61.58,2.64,73.4-28.41,22.69-59.53,39.87-112.8,61.54-173.47,3.9-26.91-10.87-47.4-35.62-56.38ZM651.87,420.63c-10.4,24.78-29.86,43.61-54.84,53.03-11.46,4.33-23.64,6.5-35.85,6.5-15.72,0-31.56-3.55-46.18-10.64-43.97-20.41-70.56-68.63-61.78-112.09,9.26-46.77,57.09-74.7,99.56-78.13,29.75-2.72,58,7.17,77.42,27.07,28.84,28.84,37.9,76.83,21.67,114.26Z"/>
</svg>