<?xml version="1.0" encoding="UTF-8"?>
<svg id="Layer_1" data-name="Layer 1" xmlns="http://www.w3.org/2000/svg" viewBox="0 0 1106.04 776.33">
  <defs>
    <style>
      .cls-1 {
        font-family: Gilroy-Medium, Gilroy-Medium;
        font-size: 107.64px;
        font-weight: 500;
      }

      .cls-1, .cls-2 {
        fill: #232323;
      }
    </style>
  </defs>
  <g>
    <path class="cls-2" d="M175.07,375.93c-4.11-4.22-9.84-6.51-16.04-6.51-.77,0-1.53.03-2.3.11-9.91.79-21.61,7.55-23.79,18.49-2.07,10.29,4.27,21.72,14.77,26.59,6.16,3,13.27,3.36,19.5.99,5.9-2.23,10.5-6.69,12.96-12.53h0c3.87-8.9,1.72-20.31-5.12-27.14ZM175.52,401.08c-1.96,4.7-5.67,8.27-10.42,10.07-2.18.82-4.49,1.24-6.8,1.24-2.98,0-5.98-.67-8.73-2.01-8.3-3.85-13.32-12.99-11.66-21.25,1.77-8.89,10.8-14.21,18.8-14.85,5.64-.51,11.01,1.37,14.71,5.17,5.45,5.45,7.17,14.55,4.1,21.64ZM158.52,377.55c-.5,0-1.01.03-1.52.07-6.59.54-14.37,4.98-15.79,12.17-1.34,6.68,2.97,14.38,9.8,17.55,4.1,1.99,8.8,2.23,12.91.67,3.88-1.46,6.9-4.39,8.52-8.25h.01c2.55-5.88,1.13-13.43-3.38-17.93-2.7-2.77-6.47-4.28-10.54-4.28ZM166.74,397.32c-2.22,5.26-8.34,7.21-13.38,4.77-4.03-1.88-6.97-6.5-6.07-10.96.89-4.42,5.48-7.28,9.76-7.63,2.85-.26,5.63.66,7.56,2.63h.01c2.82,2.83,3.69,7.52,2.11,11.19Z"/>
    <path class="cls-2" d="M189.56,366.95c-12.85-2.62-25.91-7.08-38.77-9.4-2.22-.4-4.42-.7-6.7-.36-2.83.4-5.75,2.73-7.4,4.94-7.68,10.23-13.44,23.62-20.89,34.22-2.75,5.9-.97,12.91,4.78,16.1,15.24,7.17,28.5,13.22,43.77,20.05,7.56,3.37,15.63.67,18.63-7.21,5.76-15.11,10.13-28.63,15.62-44.03.99-6.84-2.75-12.03-9.04-14.32ZM181.73,403.72c-2.63,6.29-7.58,11.07-13.91,13.46-2.91,1.1-6,1.65-9.11,1.65-3.99,0-8-.9-11.71-2.7-11.16-5.18-17.92-17.42-15.69-28.45,2.35-11.87,14.49-18.96,25.28-19.84,7.55-.68,14.72,1.83,19.65,6.88,7.32,7.32,9.62,19.5,5.49,29Z"/>
  </g>
  <text class="cls-1" transform="translate(619.05 433.16)"><tspan x="0" y="0">.Health</tspan></text>
  <path class="cls-2" d="M269,358.69c1.38,1.1,2.07,2.78,2.07,5.05v63.49c0,2.2-.69,3.86-2.07,5-1.38,1.14-2.91,1.7-4.58,1.7s-3.22-.57-4.63-1.7c-1.42-1.14-2.12-2.8-2.12-5v-25.15c0-.15-.4-.42-1.21-.82-.81-.4-1.94-.81-3.41-1.21-1.47-.4-3.19-.77-5.16-1.1-1.98-.33-4.14-.5-6.48-.5-2.49,0-5.13.26-7.91.77-2.78.51-5.6,1.43-8.46,2.75v25.26c0,2.2-.71,3.86-2.14,5-1.43,1.14-2.99,1.7-4.67,1.7s-3.2-.55-4.56-1.65c-1.36-1.1-2.03-2.78-2.03-5.05v-63.49c0-2.2.71-3.86,2.14-5,1.43-1.13,2.98-1.7,4.67-1.7s3.2.55,4.56,1.65c1.35,1.1,2.03,2.78,2.03,5.05v25.26c3-.8,5.86-1.37,8.57-1.7,2.71-.33,5.23-.5,7.58-.5,2.49,0,4.74.13,6.76.38,2.01.26,3.74.51,5.16.77,1.43.26,2.54.49,3.35.71.8.22,1.21.29,1.21.22v-25.15c0-2.27.71-3.95,2.12-5.05,1.42-1.1,2.96-1.65,4.63-1.65s3.2.55,4.58,1.65ZM334.67,394.39c1.54,3.51,2.31,7.29,2.31,11.31s-.75,7.67-2.25,11.15c-1.5,3.48-3.59,6.53-6.26,9.17-2.67,2.64-5.82,4.72-9.45,6.26-3.62,1.54-7.52,2.31-11.7,2.31s-8.07-.77-11.7-2.31c-3.62-1.54-6.76-3.62-9.39-6.26-2.64-2.64-4.71-5.71-6.21-9.23-1.5-3.51-2.25-7.21-2.25-11.09s.75-7.69,2.25-11.2c1.5-3.51,3.59-6.59,6.26-9.23,2.67-2.64,5.8-4.72,9.39-6.26,3.59-1.54,7.47-2.3,11.64-2.3s8.05.75,11.64,2.25c3.59,1.5,6.72,3.57,9.39,6.21,2.67,2.64,4.78,5.71,6.32,9.23ZM323.36,405.64c0-2.75-.59-5.27-1.76-7.58-1.17-2.3-2.95-4.24-5.33-5.82-2.38-1.57-5.36-2.36-8.95-2.36s-6.46.79-8.84,2.36c-2.38,1.58-4.17,3.52-5.38,5.82-1.21,2.31-1.81,4.83-1.81,7.58s.58,5.27,1.76,7.58c1.17,2.31,2.95,4.25,5.33,5.82,2.38,1.57,5.36,2.36,8.95,2.36s6.57-.79,8.95-2.36c2.38-1.57,4.16-3.52,5.33-5.82,1.17-2.31,1.76-4.83,1.76-7.58ZM377.51,407.57c-1.17-1.83-2.58-3.35-4.23-4.56-1.65-1.21-3.35-2.21-5.11-3.02-1.76-.81-3.48-1.5-5.16-2.09-1.69-.58-3.15-1.17-4.39-1.76-1.25-.58-2.2-1.22-2.86-1.92-.66-.69-.84-1.59-.55-2.69.29-1.17.93-2.03,1.92-2.58.99-.55,2.12-.84,3.41-.88,1.28-.04,2.56.09,3.84.38,1.28.29,2.36.66,3.24,1.1,1.76.95,3.39,1.17,4.89.66,1.5-.51,2.64-1.33,3.41-2.47.77-1.14.99-2.43.66-3.9-.33-1.46-1.41-2.71-3.24-3.74-2.71-1.46-5.64-2.42-8.79-2.85-3.15-.44-5.97-.29-8.46.44-3.22.59-5.8,1.79-7.74,3.62-1.94,1.83-3.31,3.88-4.12,6.15-.81,2.27-1.1,4.56-.88,6.86.22,2.31.84,4.23,1.87,5.77,1.17,1.76,2.6,3.2,4.28,4.34,1.68,1.14,3.44,2.09,5.27,2.86,1.83.77,3.64,1.47,5.44,2.09,1.79.62,3.35,1.34,4.67,2.14,1.32.81,2.31,1.76,2.97,2.86.66,1.1.77,2.53.33,4.28-.44,1.39-1.25,2.43-2.42,3.13-1.17.7-2.45,1.1-3.84,1.21-1.39.11-2.8-.07-4.23-.55-1.43-.47-2.62-1.19-3.57-2.14-1.1-1.02-2.25-1.87-3.46-2.53-1.21-.66-2.58-.62-4.12.11-.88.51-1.58,1.19-2.09,2.03-.51.84-.84,1.72-.99,2.64-.15.92-.09,1.85.16,2.8.26.95.79,1.79,1.59,2.53.66.81,1.37,1.54,2.14,2.2.77.66,1.66,1.28,2.69,1.87,3.07,1.83,6.11,2.84,9.12,3.02,3,.18,5.8-.2,8.4-1.15,2.6-.95,4.89-2.4,6.86-4.34,1.98-1.94,3.48-4.1,4.5-6.48,1.02-2.38,1.46-4.92,1.32-7.63-.15-2.71-1.06-5.31-2.75-7.8ZM444.3,394.39c1.54,3.51,2.3,7.29,2.3,11.31,0,4.91-.98,9.19-2.94,12.85-1.96,3.66-4.38,6.7-7.25,9.12-2.87,2.42-5.99,4.21-9.36,5.38-3.25,1.13-6.26,1.7-9.03,1.74l-.02.02s-7.77.46-17.09-4.68v18.62c0,2.13-.71,3.74-2.14,4.84-1.43,1.1-2.98,1.65-4.67,1.65s-3.2-.55-4.56-1.65c-1.36-1.1-2.03-2.71-2.03-4.83v-43.06c0-3.95.75-7.69,2.25-11.2,1.5-3.51,3.58-6.59,6.25-9.23,2.67-2.64,5.79-4.72,9.38-6.26,3.58-1.54,7.46-2.3,11.62-2.3s8.04.75,11.62,2.25c3.58,1.5,6.71,3.57,9.37,6.21,2.67,2.64,4.77,5.71,6.3,9.23ZM433.2,405.64c0-2.64-.46-4.94-1.37-6.89-.92-1.95-2.14-3.58-3.68-4.91-1.54-1.32-3.28-2.31-5.22-2.98-1.94-.66-3.94-.99-5.99-.99s-3.94.33-5.88.99c-1.94.66-3.66,1.65-5.16,2.97-1.5,1.32-2.71,2.95-3.62,4.9-.92,1.95-1.37,4.24-1.37,6.88v8.84c1.09,1.67,5.12,6.41,16.3,6.9.11,0,.2.02.3.03,2.16-.05,4.17-.46,6.02-1.25,1.98-.84,3.68-1.98,5.11-3.42,1.43-1.43,2.54-3.1,3.35-5.02.8-1.91,1.21-3.93,1.21-6.06ZM460.11,356.27c-2.27,0-3.95.7-5.05,2.09-1.1,1.39-1.65,2.91-1.65,4.56s.53,3.15,1.59,4.5c1.06,1.36,2.69,2.03,4.89,2.03s3.97-.68,5.11-2.03c1.13-1.35,1.7-2.86,1.7-4.5s-.55-3.17-1.65-4.56c-1.1-1.39-2.75-2.09-4.94-2.09ZM460,378.35c-1.68,0-3.22.55-4.61,1.65-1.39,1.1-2.09,2.78-2.09,5.05v41.41c0,2.2.7,3.86,2.09,5,1.39,1.14,2.93,1.7,4.61,1.7s3.22-.57,4.61-1.7c1.39-1.13,2.09-2.8,2.09-5v-41.41c0-2.27-.7-3.95-2.09-5.05-1.39-1.1-2.93-1.65-4.61-1.65ZM530.58,373.85c1.5,3.37,2.25,6.96,2.25,10.76s-.73,7.32-2.2,10.55c-1.47,3.22-3.48,6.01-6.04,8.35-2.56,2.34-5.57,4.18-9.01,5.49-3.44,1.32-7.1,1.98-10.98,1.98h-15.71v16.26c0,2.2-.69,3.86-2.07,5-1.38,1.14-2.91,1.7-4.58,1.7s-3.22-.57-4.63-1.7c-1.42-1.14-2.13-2.8-2.13-5v-63.71c0-1.83.62-3.37,1.85-4.61,1.23-1.25,2.76-1.87,4.58-1.87h22.68c3.81,0,7.43.71,10.87,2.14,3.44,1.43,6.44,3.39,9.01,5.88,2.56,2.49,4.59,5.42,6.1,8.79ZM519.37,384.01c-.11-2.38-.73-4.56-1.87-6.54-1.14-1.98-2.78-3.64-4.94-5-2.16-1.36-4.82-2.03-7.96-2.03h-15.71v27.13h15.71c3.44,0,6.26-.68,8.46-2.03,2.2-1.35,3.83-3.02,4.89-5,1.06-1.98,1.54-4.16,1.43-6.54ZM591.93,394.49c1.53,3.52,2.3,7.29,2.3,11.31v21.64c0,1.98-.69,3.46-2.07,4.45-1.38.99-2.9,1.48-4.58,1.48s-3.21-.49-4.63-1.48c-.4-.28-.72-.6-1.01-.95-10.88,5.22-19.44,3.79-19.44,3.79v-.02c-2.35-.2-4.86-.74-7.54-1.66-3.4-1.17-6.58-2.95-9.52-5.33-2.94-2.38-5.4-5.4-7.36-9.06-1.96-3.66-2.94-7.98-2.94-12.96,0-3.95.77-7.69,2.3-11.2,1.54-3.51,3.62-6.59,6.25-9.23s5.74-4.72,9.32-6.26c3.58-1.54,7.46-2.3,11.62-2.3s8.04.76,11.62,2.27c3.58,1.51,6.71,3.6,9.37,6.26,2.67,2.66,4.77,5.75,6.3,9.26ZM580.83,415.99v-10.19c0-2.86-.46-5.34-1.38-7.47-.92-2.12-2.11-3.9-3.58-5.33-1.47-1.43-3.18-2.49-5.12-3.19-1.95-.69-3.91-1.04-5.9-1.04s-4.06.35-6.01,1.04c-1.95.69-3.69,1.75-5.23,3.17-1.54,1.42-2.78,3.19-3.69,5.31-.92,2.12-1.38,4.6-1.38,7.45,0,2.12.38,4.18,1.15,6.19.77,2.01,1.87,3.81,3.3,5.42,1.43,1.61,3.13,2.9,5.11,3.89,1.94.97,4.06,1.45,6.36,1.47.31,0,.61,0,.91-.02.29-.02.61-.04.97-.08.07,0,.14,0,.21,0,8.35-.8,13.51-5.8,14.29-6.62ZM609.88,356.38c-1.67,0-3.21.55-4.63,1.65-1.42,1.1-2.12,2.78-2.12,5.05v63.38c0,2.2.71,3.86,2.12,5,1.42,1.14,2.96,1.7,4.63,1.7s3.2-.57,4.58-1.7c1.38-1.13,2.07-2.8,2.07-5v-63.38c0-2.27-.69-3.95-2.07-5.05-1.38-1.1-2.9-1.65-4.58-1.65Z"/>
</svg>