<?xml version="1.0" encoding="UTF-8"?>
<svg id="Layer_1" data-name="Layer 1" xmlns="http://www.w3.org/2000/svg" xmlns:xlink="http://www.w3.org/1999/xlink" viewBox="0 0 1106.04 776.33">
  <defs>
    <style>
      .cls-1, .cls-2 {
        fill: #2f4858;
      }

      .cls-3 {
        fill: url(#linear-gradient);
      }

      .cls-2 {
        font-family: Gilroy-Medium, Gilroy-Medium;
        font-size: 112.7px;
        font-weight: 500;
      }
    </style>
    <linearGradient id="linear-gradient" x1="316.6" y1="367.53" x2="789.45" y2="367.53" gradientUnits="userSpaceOnUse">
      <stop offset="0" stop-color="#f27567"/>
      <stop offset=".46" stop-color="#939b81"/>
      <stop offset="1" stop-color="#00a7a2"/>
    </linearGradient>
  </defs>
  <g>
    <path class="cls-1" d="M386.05,457.08c-3.73-3.83-8.93-5.91-14.55-5.91-.69,0-1.39.02-2.08.1-8.99.72-19.6,6.85-21.58,16.78-1.88,9.33,3.87,19.7,13.4,24.12,5.59,2.72,12.04,3.05,17.69.9,5.35-2.02,9.53-6.07,11.76-11.37h0c3.51-8.08,1.56-18.42-4.64-24.62ZM386.47,479.89c-1.78,4.26-5.14,7.51-9.45,9.14-1.97.74-4.07,1.12-6.17,1.12-2.7,0-5.42-.61-7.92-1.83-7.53-3.5-12.09-11.78-10.58-19.28,1.61-8.07,9.8-12.89,17.06-13.48,5.12-.46,9.99,1.24,13.34,4.69,4.95,4.95,6.51,13.2,3.72,19.63ZM371.04,458.54c-.45,0-.91.02-1.38.06-5.98.49-13.04,4.52-14.33,11.04-1.22,6.06,2.69,13.05,8.89,15.92,3.72,1.8,7.98,2.02,11.71.61,3.52-1.33,6.26-3.98,7.72-7.48h.01c2.32-5.34,1.02-12.18-3.07-16.27-2.45-2.51-5.87-3.89-9.56-3.89ZM378.5,476.48c-2.01,4.78-7.57,6.54-12.14,4.33-3.66-1.71-6.32-5.9-5.51-9.94.8-4.01,4.97-6.6,8.86-6.92,2.58-.23,5.11.6,6.86,2.39h.01c2.56,2.57,3.35,6.82,1.91,10.15Z"/>
    <path class="cls-1" d="M399.2,448.93c-11.66-2.38-23.5-6.42-35.18-8.53-2.01-.37-4.01-.63-6.08-.33-2.57.37-5.21,2.47-6.71,4.48-6.97,9.28-12.2,21.43-18.95,31.05-2.5,5.35-.88,11.71,4.34,14.61,13.83,6.51,25.85,11.99,39.71,18.19,6.86,3.06,14.18.61,16.9-6.54,5.23-13.71,9.19-25.98,14.17-39.94.9-6.2-2.5-10.92-8.2-12.99ZM392.09,482.29c-2.39,5.7-6.87,10.04-12.62,12.21-2.64,1-5.45,1.5-8.26,1.5-3.62,0-7.26-.82-10.62-2.45-10.12-4.7-16.25-15.8-14.23-25.81,2.13-10.77,13.15-17.2,22.93-18,6.85-.62,13.35,1.66,17.83,6.24,6.64,6.64,8.72,17.69,4.98,26.31Z"/>
  </g>
  <text class="cls-2" transform="translate(410.21 514.07)"><tspan x="0" y="0">Health</tspan></text>
  <path class="cls-3" d="M383.58,312.56c1.61,1.28,2.42,3.25,2.42,5.9v74.15c0,2.57-.81,4.51-2.42,5.84s-3.39,1.99-5.34,1.99-3.75-.66-5.41-1.99c-1.66-1.33-2.48-3.27-2.48-5.84v-29.38c0-.17-.47-.49-1.41-.96-.94-.47-2.27-.94-3.98-1.41-1.71-.47-3.72-.9-6.03-1.28-2.31-.39-4.83-.58-7.57-.58-2.91,0-5.99.3-9.24.9-3.25.6-6.54,1.67-9.88,3.21v29.5c0,2.57-.83,4.51-2.5,5.84-1.67,1.33-3.49,1.99-5.45,1.99s-3.74-.64-5.32-1.92c-1.58-1.28-2.37-3.25-2.37-5.9v-74.15c0-2.57.83-4.51,2.5-5.84,1.67-1.32,3.48-1.99,5.45-1.99s3.74.64,5.32,1.92c1.58,1.28,2.37,3.25,2.37,5.9v29.5c3.51-.94,6.84-1.6,10.01-1.99,3.16-.38,6.11-.58,8.85-.58,2.91,0,5.54.15,7.89.45,2.35.3,4.36.6,6.03.9,1.67.3,2.97.58,3.91.83.94.26,1.41.34,1.41.26v-29.38c0-2.65.83-4.62,2.48-5.9,1.65-1.28,3.46-1.92,5.41-1.92s3.73.64,5.34,1.92ZM460.27,354.25c1.8,4.1,2.69,8.51,2.69,13.21s-.88,8.96-2.63,13.02c-1.75,4.06-4.19,7.63-7.31,10.71-3.12,3.08-6.8,5.51-11.03,7.31-4.23,1.8-8.79,2.69-13.66,2.69s-9.43-.9-13.66-2.69c-4.23-1.8-7.89-4.23-10.97-7.31-3.08-3.08-5.5-6.67-7.25-10.78-1.75-4.1-2.63-8.42-2.63-12.96s.88-8.98,2.63-13.09c1.75-4.1,4.19-7.7,7.31-10.77,3.12-3.08,6.78-5.51,10.97-7.31,4.19-1.8,8.72-2.69,13.6-2.69s9.41.88,13.6,2.63c4.19,1.75,7.85,4.17,10.97,7.25,3.12,3.08,5.58,6.67,7.38,10.78ZM447.06,367.4c0-3.21-.69-6.16-2.05-8.85-1.37-2.69-3.44-4.96-6.22-6.8-2.78-1.84-6.26-2.76-10.45-2.76s-7.55.92-10.33,2.76c-2.78,1.84-4.87,4.11-6.29,6.8-1.41,2.69-2.12,5.65-2.12,8.85s.68,6.16,2.05,8.85c1.37,2.69,3.44,4.96,6.22,6.8,2.78,1.84,6.26,2.76,10.46,2.76s7.67-.92,10.45-2.76c2.78-1.84,4.85-4.11,6.22-6.8,1.37-2.69,2.05-5.64,2.05-8.85ZM510.3,369.65c-1.37-2.14-3.01-3.91-4.94-5.32-1.92-1.41-3.91-2.59-5.97-3.53s-4.06-1.75-6.03-2.44c-1.97-.68-3.68-1.37-5.13-2.05-1.46-.68-2.57-1.43-3.34-2.24-.77-.81-.98-1.86-.64-3.14.34-1.37,1.09-2.37,2.24-3.02,1.16-.64,2.48-.98,3.98-1.03,1.49-.04,2.99.11,4.49.45,1.5.34,2.76.77,3.78,1.28,2.05,1.11,3.95,1.37,5.71.77,1.75-.6,3.08-1.56,3.98-2.89.9-1.33,1.15-2.84.77-4.55-.39-1.71-1.65-3.16-3.78-4.36-3.17-1.71-6.59-2.82-10.26-3.33-3.68-.52-6.97-.34-9.88.51-3.77.68-6.78,2.1-9.04,4.23-2.27,2.14-3.87,4.54-4.81,7.18-.94,2.65-1.28,5.32-1.03,8.02.26,2.69.98,4.94,2.18,6.73,1.37,2.05,3.03,3.74,5,5.07,1.97,1.33,4.02,2.44,6.16,3.34,2.14.9,4.25,1.71,6.35,2.44,2.09.73,3.91,1.56,5.45,2.5,1.54.94,2.69,2.05,3.46,3.34.77,1.28.9,2.95.38,5-.51,1.63-1.45,2.84-2.82,3.66-1.37.81-2.87,1.28-4.49,1.41-1.62.13-3.27-.08-4.94-.64-1.67-.55-3.06-1.39-4.17-2.5-1.28-1.2-2.63-2.18-4.04-2.95-1.41-.77-3.01-.72-4.81.13-1.03.6-1.84,1.39-2.44,2.37-.6.98-.98,2.01-1.15,3.08-.17,1.07-.11,2.16.19,3.27.3,1.11.92,2.1,1.86,2.95.77.94,1.6,1.8,2.5,2.57.9.77,1.94,1.5,3.14,2.18,3.59,2.14,7.14,3.31,10.65,3.53,3.51.21,6.78-.24,9.81-1.35,3.03-1.11,5.71-2.8,8.02-5.07,2.31-2.27,4.06-4.79,5.26-7.57,1.2-2.78,1.71-5.75,1.54-8.91-.17-3.16-1.24-6.2-3.21-9.11ZM588.3,354.25c1.79,4.1,2.69,8.51,2.69,13.21,0,5.73-1.15,10.73-3.44,15.01-2.29,4.28-5.11,7.83-8.47,10.65-3.36,2.82-7,4.92-10.93,6.29-3.8,1.32-7.31,1.99-10.55,2.03l-.02.02s-9.07.53-19.96-5.47v21.75c0,2.48-.83,4.37-2.5,5.65-1.67,1.28-3.48,1.93-5.45,1.93s-3.74-.64-5.32-1.92c-1.58-1.28-2.37-3.17-2.37-5.65v-50.29c0-4.62.87-8.98,2.62-13.09,1.75-4.1,4.18-7.7,7.3-10.77,3.12-3.08,6.76-5.51,10.95-7.31,4.18-1.8,8.71-2.69,13.57-2.69s9.39.88,13.57,2.63c4.18,1.75,7.83,4.17,10.95,7.25,3.11,3.08,5.57,6.67,7.36,10.78ZM575.34,367.4c0-3.09-.53-5.77-1.6-8.05-1.07-2.28-2.5-4.18-4.3-5.73-1.8-1.54-3.83-2.7-6.09-3.47-2.27-.77-4.6-1.16-6.99-1.16s-4.6.39-6.86,1.16c-2.27.77-4.28,1.93-6.03,3.47-1.75,1.54-3.16,3.45-4.23,5.72-1.07,2.27-1.6,4.95-1.6,8.03v10.33c1.27,1.95,5.98,7.48,19.04,8.06.13,0,.23.02.36.03,2.53-.06,4.87-.53,7.03-1.45,2.31-.98,4.3-2.32,5.96-3.99,1.67-1.67,2.97-3.63,3.91-5.86.94-2.23,1.41-4.59,1.41-7.08ZM606.77,309.74c-2.65,0-4.62.82-5.9,2.44s-1.92,3.4-1.92,5.32.62,3.68,1.86,5.26c1.24,1.58,3.14,2.37,5.71,2.37s4.64-.79,5.97-2.37c1.32-1.58,1.99-3.34,1.99-5.26s-.64-3.7-1.92-5.32c-1.28-1.62-3.21-2.44-5.77-2.44ZM606.64,335.53c-1.97,0-3.76.64-5.39,1.92-1.62,1.28-2.44,3.25-2.44,5.9v48.36c0,2.57.81,4.51,2.44,5.84,1.62,1.33,3.42,1.99,5.39,1.99s3.76-.66,5.39-1.99c1.62-1.32,2.44-3.27,2.44-5.84v-48.36c0-2.65-.81-4.62-2.44-5.9-1.63-1.28-3.42-1.92-5.39-1.92ZM689.07,330.27c1.75,3.93,2.63,8.13,2.63,12.57s-.86,8.55-2.57,12.32c-1.71,3.77-4.06,7.01-7.06,9.75-2.99,2.74-6.5,4.88-10.52,6.41-4.02,1.54-8.3,2.31-12.83,2.31h-18.35v18.98c0,2.57-.81,4.51-2.42,5.84-1.61,1.33-3.39,1.99-5.34,1.99s-3.75-.66-5.41-1.99c-1.66-1.33-2.48-3.27-2.48-5.84v-74.4c0-2.14.72-3.93,2.16-5.39,1.44-1.45,3.22-2.18,5.34-2.18h26.49c4.44,0,8.68.83,12.7,2.5,4.02,1.67,7.52,3.96,10.52,6.86,2.99,2.91,5.37,6.33,7.12,10.26ZM675.98,342.13c-.13-2.78-.85-5.32-2.18-7.63-1.33-2.31-3.25-4.25-5.77-5.84-2.52-1.58-5.62-2.37-9.3-2.37h-18.35v31.69h18.35c4.02,0,7.31-.79,9.88-2.37,2.57-1.58,4.47-3.53,5.71-5.84,1.24-2.31,1.8-4.85,1.67-7.63ZM760.71,354.38c1.79,4.11,2.69,8.51,2.69,13.21v25.27c0,2.31-.81,4.04-2.42,5.19-1.61,1.16-3.39,1.73-5.34,1.73s-3.75-.58-5.41-1.73c-.46-.32-.84-.7-1.18-1.11-12.7,6.09-22.71,4.43-22.71,4.43v-.02c-2.75-.23-5.68-.87-8.81-1.94-3.98-1.37-7.68-3.44-11.12-6.22-3.44-2.78-6.31-6.31-8.6-10.58-2.29-4.28-3.44-9.32-3.44-15.14,0-4.62.9-8.98,2.69-13.09,1.79-4.1,4.22-7.7,7.3-10.77s6.7-5.51,10.88-7.31c4.18-1.8,8.71-2.69,13.58-2.69s9.39.88,13.57,2.65c4.18,1.77,7.83,4.21,10.95,7.31,3.11,3.11,5.57,6.71,7.36,10.82ZM747.75,379.49v-11.89c0-3.34-.54-6.24-1.61-8.72-1.07-2.48-2.47-4.55-4.18-6.22-1.72-1.67-3.71-2.91-5.98-3.72-2.28-.81-4.57-1.22-6.89-1.22s-4.74.4-7.02,1.21c-2.27.81-4.31,2.05-6.11,3.71-1.8,1.66-3.24,3.73-4.31,6.2-1.07,2.47-1.61,5.37-1.61,8.7,0,2.47.45,4.88,1.35,7.22.9,2.35,2.18,4.45,3.85,6.33,1.67,1.88,3.66,3.39,5.96,4.54,2.27,1.13,4.74,1.7,7.42,1.72.36,0,.71,0,1.06-.03.34-.02.71-.05,1.13-.09.08,0,.16,0,.24,0,9.75-.94,15.77-6.77,16.69-7.73ZM781.68,309.87c-1.95,0-3.75.64-5.41,1.92-1.66,1.28-2.48,3.25-2.48,5.9v74.02c0,2.57.83,4.51,2.48,5.84,1.65,1.33,3.46,1.99,5.41,1.99s3.73-.66,5.34-1.99c1.61-1.32,2.42-3.27,2.42-5.84v-74.02c0-2.65-.81-4.62-2.42-5.9-1.61-1.28-3.39-1.92-5.34-1.92Z"/>
</svg>