<?xml version="1.0" encoding="UTF-8"?>
<svg id="Layer_1" data-name="Layer 1" xmlns="http://www.w3.org/2000/svg" viewBox="0 0 1106.04 776.33">
  <defs>
    <style>
      .cls-1 {
        fill: #2f4858;
      }
    </style>
  </defs>
  <path class="cls-1" d="M626.49,310.21c-16.39-16.82-39.26-25.98-63.95-25.98-3.05,0-6.11.11-9.16.43-39.52,3.16-86.17,30.1-94.85,73.75-8.25,41.03,17.03,86.6,58.91,106.04,24.58,11.94,52.92,13.39,77.77,3.96,23.51-8.89,41.88-26.67,51.68-49.97v-.05c15.42-35.46,6.85-80.93-20.41-108.19ZM628.31,410.47c-7.82,18.75-22.6,32.99-41.56,40.17-8.68,3.27-17.89,4.93-27.1,4.93-11.89,0-23.83-2.68-34.81-8.03-33.1-15.37-53.13-51.79-46.49-84.73,7.07-35.46,43.06-56.66,74.98-59.23,22.49-2.04,43.92,5.46,58.65,20.62,21.74,21.74,28.6,58,16.33,86.28ZM560.51,316.63c-1.98,0-4.02.11-6.05.27-26.3,2.14-57.31,19.87-62.98,48.52-5.36,26.62,11.84,57.36,39.1,70,16.34,7.93,35.08,8.89,51.47,2.68,15.48-5.84,27.53-17.51,33.96-32.88l.05-.05c10.18-23.41,4.5-53.5-13.5-71.45-10.77-11.03-25.81-17.08-42.04-17.08ZM593.29,395.47c-8.84,20.99-33.26,28.76-53.34,19.01-16.07-7.5-27.8-25.92-24.21-43.7,3.53-17.62,21.85-29.03,38.94-30.42,11.35-1.02,22.44,2.62,30.15,10.5l.05.05c11.25,11.25,14.73,29.94,8.41,44.56Z"/>
  <path class="cls-1" d="M684.28,274.38c-51.25-10.44-103.31-28.22-154.62-37.49-8.84-1.61-17.62-2.78-26.73-1.45-11.3,1.61-22.92,10.87-29.51,19.71-30.63,40.81-53.61,94.21-83.28,136.46-10.98,23.51-3.86,51.47,19.07,64.22,60.79,28.6,113.65,52.7,174.54,79.96,30.15,13.44,62.34,2.68,74.28-28.76,22.98-60.25,40.38-114.19,62.29-175.56,3.96-27.26-10.98-47.99-36.04-57.09ZM653.06,421.02c-10.5,25.06-30.21,44.13-55.49,53.66-11.62,4.39-23.94,6.59-36.31,6.59-15.91,0-31.92-3.59-46.7-10.77-44.51-20.67-71.45-69.46-62.56-113.44,9.37-47.34,57.79-75.62,100.8-79.1,30.1-2.73,58.7,7.28,78.35,27.42,29.19,29.19,38.35,77.77,21.91,115.63Z"/>
</svg>